<?xml version="1.0" encoding="utf-8"?>
<!-- Generator: Adobe Adobe Illustrator 29.2.0, SVG Export Plug-In . SVG Version: 6.00 Build 0)  -->
<svg version="1.1" id="Слой_1" xmlns="http://www.w3.org/2000/svg" xmlns:xlink="http://www.w3.org/1999/xlink" x="0px" y="0px"
	 viewBox="0 0 547 542" style="enable-background:new 0 0 547 542;" xml:space="preserve">
<style type="text/css">
	.st0{clip-path:url(#SVGID_00000135683462387857517290000013403111361693524666_);}
	.st1{fill:#B7D0F9;}
	.st2{fill:#1531A8;}
	.st3{fill:url(#SVGID_00000097465637965783558850000006293640614643082129_);}
	.st4{fill:url(#SVGID_00000031179666266207815450000006716131966419185083_);}
	.st5{fill:#AEC2F9;}
</style>
<g>
	<defs>
		<circle id="SVGID_1_" cx="273.5" cy="274" r="260.9"/>
	</defs>
	<clipPath id="SVGID_00000079476736742726576990000007384278736873491083_">
		<use xlink:href="#SVGID_1_"  style="overflow:visible;"/>
	</clipPath>
	<g style="clip-path:url(#SVGID_00000079476736742726576990000007384278736873491083_);">
		<g>
			<path class="st1" d="M547,252.5v41.9c-1.6,6.4-1.2,13.6-2.2,20.2c-1,6.3-3.3,14.3-4.8,20.7c-2-1-0.6-3.3-0.3-4.8
				c5.8-26.8,9.6-79.2,1.3-105h1c1.5,7.7,5.4,15.9,4,24.5L547,252.5z"/>
			<path class="st2" d="M13,193.6c-0.2,2,0.4,4.3,0,6.3c-0.2,0.8-1.6,0.7-1.7,1.2c-3.9,13.7-8.1,33.5-8.9,48.1
				c-0.1,1.7,0.9,3.5,0.6,5.3l-2,0H0c0.1-1.6-0.1-3.4,0-5C1.4,230.3,7.3,211.7,13,193.6z"/>
			<path class="st1" d="M298,543c-3.8,1.6-7.7,0.6-11.6,1c-1.3,0.1-2.3,1-2.4,1c-6.9,0.4-14-0.3-21,0l-2.4-1
				c-4.6-0.1-9.2,0.6-13.6-1c4.8-0.2,9.7,0,14.5,0h23C288.8,543,293.6,542.8,298,543z"/>
			<path class="st2" d="M1,291.4c3.1,1.3,1.2,2.4,1.4,4.3c0.9,8.5,2.5,17,2.6,25.7c-0.5-1.7-1.6-4.3-2-6c-0.5-2.5-1.6-5.2-1.9-7.6
				c-0.5-4,1-8.8-1.1-12.4v-4H1z"/>
			<rect x="0" y="254.5" class="st1" width="1" height="36.9"/>
			
				<linearGradient id="SVGID_00000101092608927905818470000008300826363093067905_" gradientUnits="userSpaceOnUse" x1="-254.9012" y1="867.0852" x2="-570.4268" y2="1296.6578" gradientTransform="matrix(1 0 0 0.9982 686 -806.5428)">
				<stop  offset="0" style="stop-color:#2352DB"/>
				<stop  offset="1" style="stop-color:#0D1B68"/>
			</linearGradient>
			<path style="fill:url(#SVGID_00000101092608927905818470000008300826363093067905_);" d="M297,6c5.4,0.2,10.6,0.5,16,1
				c-0.6,3.2,1.6,1.7,3.5,2c3.8,0.5,7.6,1.3,11.5,1c2.1,0.7,3.7,1,6,2c2.1,0.9,3.6,2.6,7,2.5l-7,1.5c4-1.4,7.7,1.7,10.6,2
				c3.1,0.3,6.1-1.1,10.4,0c4.2,1,9.1,5.6,14,3v1c-0.1,0.1,0.3,1.3-0.3,1.7c-0.9,0.7-3.1-0.6-2.7,1.3l16,5l-2,3c4.4-1.7,6,0.2,10,1
				l-2.5-3c1.9,0.6,3.5,1.4,5.5,2c6.4,1.9,3.7,1.6,7.8,4c11.8,7.2,22.7,13.1,34.2,21c0.1,3.5,1.5,6.3,5.1,7.5c1.4,0.5,2.7-0.5,3.9,0
				c0.4,0.2,4.9,4.6,5,5l-2,1.5c2.4,0.4,4.6,0.5,7,1c0.3,0.1,0.7-0.1,1,0c0.4,0.6,0.6,1.4,1,2c0.8,1.3,1.8,2.5,3,3.5l-2,1.5
				c0.8-0.1,1.5,0.2,2,0.8c7.6,8.6,13.9,11.7,21.1,20.4c1.7,2.1,4.7,2.7,3.9,5.8c-2-1.2-2.2-1.6-2,1c2.6,0.5,5.1,4.5,6,7l1.5-2
				c2.6,2.9,4.8,6.2,7.5,9c0.1,0.1,1.3-0.2,1.8,0.2c0.7,0.8,0,2.2,0.2,2.8c1.4,4.1,1.6,5.6,2.5,8.9c0.6,2,4.3,5.3,4.5,8
				c1.7,0.3,0.7-1.3,1-2.3c0.3-1.2,2.1,0.4,3-0.7c0.4,0.6,0.6,1.4,1,2l-1,0.5c0.9,0.5,0.7,2.2,1,2.5l-2,2.5c4.8,9,10.9,18.4,13,28.5
				l1-4l3,3c0.5,2.4,1.8,4.8,2,7c1.6,15.3,7,28.3,9.9,43.5c0.4,1.9-0.2,4,0.1,5.9c0.3,1.9,1.6,3.3,1.9,5.1c0.6,3.9-0.4,8.4,1.1,12.4
				c1.7,0.3,1.1-2.4,1-3.5c-0.6-7.6-3.2-14.9-3-22.5c1.3-0.1,1.6,2.8,2,4c8.3,25.9,4.5,78.2-1.3,105c-0.3,1.4-1.7,3.7,0.3,4.8
				c-0.1,0.3,0.1,0.7,0,1c-3.7-0.6-2.1,6.3-4,9l-6,13c0.6-4.7,3.2-8.9,3.9-13.5c0.4-2.3-1.1-1.5-1.5-0.4c-2.1,5.5-3.7,13-5.1,18.8
				c-5,3.3-3.8,8.6-6.2,14.9c-4.5,12.1-11.8,23.7-18.2,34.8c-0.1,3.6,2.5-1.2,2.5-1.5l1.4,1.9c-0.3,0.4-0.4,1.2-1,2
				c-2.4,3.5-4.9,6.4-7,9c-1,1.2-10.4,13.6-11,13l-0.5-2l-6.5,9l3,1c-6.9,8.2-14.3,17.1-22,25c-0.7,0.7-1.4,1.3-2,2
				c-6.1,3.3-8.3,8.6-15,11c-2.2,0.8-2.3,2.3-3.5-1c-13.8,9.9-27.6,20.6-43.5,27c1.1,3,5.1-1.5,7-1l-4,4c-6.5,3.2-9.9,6-18,8
				c-2.2,0.5-4.4,1.2-6.6,1.9l-0.8-1.9c-10.3,3.9-20.7,7.7-31.3,10.7c-2.2,0.6-5.4-0.5-6.2,2.2l2,2c-2.5,0-4-0.6-6,1
				c-0.8,0.6-1,1-1,2c-0.3,0.1-0.7-0.1-1,0c-8.9,1.4-20.3,2.3-29.5,3c-1.9,0.1-4-1.1-3.5,2c-0.3,0-0.7,0-1,0c-4.4-0.1-9.2,0-13.5,0
				h-23c-4.8,0-9.7-0.2-14.5,0c-1,0-2,0-3,0c0.9-2.6-5.2-2.7-6.6-2.9c-8.2-0.9-16.2-1.7-24.4-3.1c-4-0.7-7.9-1.1-12-2
				c0-0.6,0.2-1.6-0.1-1.8c-1.3-0.8-7.8-1.9-10.9-3.1c-42.1-16.6-64.3-30.6-100-57.9c-0.1-0.1-2.1,0-3.5-0.9
				c-3.4-2.2-9.3-9.6-11.5-13c-3.2-5.3-3.9-10.1-8-15l-2,3c-4.4-8.4-12.3-15.4-17.4-23c-5.6-8.4-7.8-14.3-10.9-23.1
				c-0.9-2.6-3.1-4.9-3.7-7.8l-1,2c-1.1,0.9-9.9-19-10.6-20.8C15,358.2,10.2,341.7,6,326.4c-0.5-1.7-0.6-3.5-1-5
				c-0.1-8.6-1.7-17.1-2.6-25.7c-0.2-1.9,1.7-3-1.4-4.3v-36.9l2,0c0.3-1.8-0.7-3.6-0.6-5.3c0.8-14.6,4.9-34.4,8.9-48.1
				c0.1-0.5,1.6-0.4,1.7-1.2c0.4-2-0.2-4.3,0-6.3c0.3-1,0.7-2,1-3l2-1.5c0.6,1.8-2.6,6.6,0,7.5c-0.3-2.8,3.1-8.8,3-10.5
				c0-1.6-2-2.4-2-4c0-0.3,3.8-1.3,2-5.5l3,2c1.5-5.1,5.4-10.8,6.8-15.7c0.5-1.8-0.8-6.5,1.3-9.2l2,3c2.1-1.8,2.5-11.6,3-12
				c0.3-0.2,4.9,2.5,5-4c-4.5,2.8,0-4.6,0.6-5.8c5.4-9.7,13.9-19.8,20.4-29.1c1-1.4,2.8-5.9,4.4-8c3.6-4.8,9.1-9.9,13.6-13.9
				c0.5-0.4,1.6-0.6,2-1l0.5,4c2.6-4,11.5-9,13.6-12.4c1-1.7,0.4-5.7,4.4-7.5l2,2l6.5-5.5l-1-3.5c0.3-0.3,0.6-0.7,1-1
				c2.2,1.6,4.1-0.7,5.5-2l1,2l27.5-17l-2-2c7,0.5,11.6-4.4,18-6l-0.5-2l-3.5-1c0.3-0.1,0.7,0.1,1,0l18-7c2.4-0.3,2.1,0.2,1,2
				c5.1,0.8,8.4-4.4,14-4l-4-2l25.2-6.3c2.3-1,4.4-1.6,6.8-2.7c0.3-0.1,0.6-0.8,1-1l18-2c3.3-0.7,0.7,1.9,1,2c2.7,1.2,1.6-2,2.5-2
				c0.7,3.1,4.3,2.2,7,2c1.5-0.1,6-0.2,6.5-2c-2.9,0-5.5,0.9-8.5,1c-1.1,0-3.8,0.6-3.5-1c4,1.8,6.2-1.9,7.4-2.1
				C260,4.2,283.5,5.5,297,6z M299.4,202.2c-22.7-24.8,1.3-54.5-30.4-79.9c-49.7-39.9-115.1,33.2-63.5,77.3
				c4.1,3.5,8.6,5.1,12.2,7.3c0.6,0.4,0.6,2.2,1.9,2.6c8.5,2.9,25.7,1.1,35.6,3.4c23.5,5.3,32.3,29.8,22.6,51
				c-14.7,32.1-40.9,17.7-67.1,25.9c-49.3,15.3-61.7,80.6-19.1,110.3c36.7,25.6,88.6,7.3,97.1-36.5c3.7-19.1,0-39.9,21.2-49.7
				c23.6-10.9,31.4,3.7,50.8,6.3c39.3,5.2,72.3-27.3,64-66.9c-3.2-15.5-18.5-33.8-33.1-39.9c-29.4-12.2-42.6,4.3-68.1,1.1
				C316.2,213.6,304.5,207.7,299.4,202.2z M543,298.9c1.2-16-0.9-33.3,0-49.4c-1.8-0.2-0.9,2.3-1,3.5c-0.7,18,1.8,36.2-2,53.9l1,8.5
				c0.2-3.4-0.3-6.9,0.1-10.4C541.4,302.9,542.9,300.1,543,298.9z"/>
			<path class="st2" d="M61,105.8c-6.5,9.3-14.9,19.4-20.4,29.1c-0.7,1.2-5.1,8.7-0.6,5.8c-0.1,6.5-4.6,3.8-5,4
				c-0.5,0.4-0.9,10.2-3,12l-2-3c-2.1,2.7-0.8,7.4-1.3,9.2c-1.4,5-5.2,10.7-6.8,15.7l-3-2c1.7,4.2-2.1,5.2-2,5.5c0.1,1.6,2,2.4,2,4
				c0.1,1.7-3.3,7.7-3,10.5c-2.6-0.9,0.6-5.6,0-7.5l-2,1.5c7.2-21.5,13.3-36.2,25-55.9c1.9-3.3,3.9-6.8,6-10c3.1-4.6,6.4-9.8,10-14
				C56.3,109.3,59.5,105.8,61,105.8z"/>
			<path class="st2" d="M537,203.6c1,4.4,0.8,11.1,4,15c0.6,2.7,0.6,4.8,1,7h-1c-0.4-1.2-0.7-4.1-2-4c-0.2,7.6,2.4,14.9,3,22.5
				c0.1,1.1,0.7,3.7-1,3.5c-1.5-4.1-0.5-8.5-1.1-12.4c-0.3-1.8-1.6-3.2-1.9-5.1c-0.3-1.9,0.2-4-0.1-5.9c-2.9-15.2-8.4-28.2-9.9-43.5
				C533.5,185.7,535.3,196.3,537,203.6z"/>
			<path class="st2" d="M154,30.9l3.5,1l0.5,2c-6.4,1.6-11,6.5-18,6l2,2l-27.5,17l-1-2c-1.4,1.3-3.3,3.6-5.5,2
				c4.3-3.2,9.5-7.5,13-10c4.1-1.3,7.4-3.8,11-6C139.5,38.3,145.8,34.5,154,30.9z"/>
			<path class="st2" d="M511,143.7c0.9,1.2,4.8,5,6,7c0.1,0.2-0.1,0.7,0,1c0.1,1.4,0.5,2.6,2,3c0.1,0.3-0.1,0.7,0,1
				c0,1.5,0.5,2.6,2,3c0.1,0.3-0.1,0.7,0,1c0.6,1.3,1.3,3.3,2,5c2,4.7,2,3.8,3,9l-3-3l-1,4c-2.1-10-8.2-19.5-13-28.5L511,143.7z"/>
			<path class="st2" d="M107,59.9l1,3.5l-6.5,5.5l-2-2c-4.1,1.8-3.4,5.8-4.4,7.5c-2.1,3.5-11,8.4-13.6,12.4l-0.5-4
				c2.8-2.9,5.9-6.8,9-10l10-8C101.9,62.6,105.2,61.2,107,59.9z"/>
			<path class="st2" d="M216,10.9c-2.3,1.1-4.4,1.6-6.8,2.7L184,19.9l4,2c-5.6-0.4-8.9,4.8-14,4c1.1-1.8,1.4-2.3-1-2v-1
				c2.4-0.8,3.4-2.3,4.8-2.7C190.1,16.1,203.1,12,216,10.9z"/>
			<path class="st2" d="M456,74.8c2.3-0.6,3.9,1.7,5.4,3c5.1,4.6,13.1,12.8,17.6,17.9c0.2,0.2-0.2,0.8,0,1c2,2.3,4.1,4.6,6,7
				c3.3,4.1,7.3,8.5,10,13c1,1.6,2.2,2.8,2,5c-2.7-2.8-4.9-6.1-7.5-9l-1.5,2c-0.9-2.5-3.4-6.5-6-7c-0.3-2.6,0-2.1,2-1
				c0.8-3.1-2.2-3.7-3.9-5.8c-7.2-8.7-13.5-11.8-21.1-20.4c-0.5-0.6-1.2-0.8-2-0.8l2-1.5C457.8,77.3,456.8,76.2,456,74.8z"/>
			<path class="st1" d="M392,30.9c9.3,4,17.5,7.8,26.3,13.2c9.1,5.6,19.2,12.3,26.7,19.8c-2.3-1.8-7.6-4.4-10-6
				c-11.6-7.9-22.5-13.8-34.2-21c-4-2.5-1.3-2.1-7.8-4L392,30.9z"/>
			<path class="st2" d="M372,22.9c3.4,1.5,4.1,1.2,7,2c0.3,0.1,0.7-0.1,1,0l0,2l4,0c2.9,1.5,4.8,2.6,8,4l1,2c-2-0.6-3.6-1.4-5.5-2
				l2.5,3c-4-0.8-5.6-2.7-10-1l2-3l-16-5c-0.3-1.8,1.8-0.5,2.7-1.3c0.6-0.4,0.2-1.7,0.3-1.7C369.9,21.2,371.3,22.6,372,22.9z"/>
			<path class="st2" d="M247,5c16.4-0.9,33.5,0.7,50,0v1c-13.5-0.4-37-1.7-49.6-0.1C246.2,6,244,9.8,240,8c-0.3,1.7,2.4,1.1,3.5,1
				c3-0.1,5.5-1,8.5-1c-0.5,1.8-5,2-6.5,2c-2.7,0.1-6.4,1.1-7-2c-0.9,0,0.2,3.2-2.5,2c-0.2-0.1,2.4-2.7-1-2V7
				C238.9,6.5,243.5,5.2,247,5z"/>
			<path class="st2" d="M435,57.9c2.4,1.6,7.7,4.2,10,6c3.3,2.5,6.5,5.7,9,9c-2.4-0.5-4.6-0.6-7-1l2-1.5c-0.2-0.4-4.6-4.8-5-5
				c-1.2-0.5-2.5,0.4-3.9,0C436.5,64.1,435.1,61.4,435,57.9z"/>
			<path class="st2" d="M355,16.9v1c-4.3-1.1-7.3,0.3-10.4,0c-2.8-0.3-6.6-3.4-10.6-2l7-1.5c-3.4,0.1-4.9-1.6-7-2.5
				c2.3-0.9,6.7,0.6,9.2,1.3C347.1,14.2,351.4,16,355,16.9z"/>
			<path class="st2" d="M503,127.7c2.4,3.1,4.8,7.5,7,11c-0.9,1.1-2.7-0.6-3,0.7c-0.2,1,0.8,2.6-1,2.3c-0.2-2.7-3.9-6-4.5-8
				c-0.9-3.3-1.1-4.8-2.5-8.9C501,124.7,501.9,126.4,503,127.7z"/>
			<path class="st1" d="M297,5c-16.5,0.7-33.6-0.9-50,0H297z"/>
			<path class="st1" d="M369,20.9c-4.9,2.6-9.8-2-14-3v-1C358.9,18,365.1,17.5,369,20.9z"/>
			<path class="st1" d="M328,10c-3.9,0.2-7.7-0.6-11.5-1c-1.9-0.2-4.1,1.3-3.5-2C320.2,7.6,321.7,7.7,328,10z"/>
			<path class="st1" d="M173,22.9v1l-18,7c-0.4-2.5,3.6-3.4,5.3-4.2C164.9,24.7,169.2,24.3,173,22.9z"/>
			<path class="st1" d="M235,7v1l-18,2C224,6.3,227.8,7.8,235,7z"/>
			<path class="st1" d="M541,218.6c-3.2-3.9-3-10.6-4-15C540.2,207.9,539.9,213.6,541,218.6z"/>
			<path class="st1" d="M132,42.9c-3.6,2.2-6.9,4.7-11,6C124.3,46.5,127.6,42.9,132,42.9z"/>
			<path class="st1" d="M379,24.9c-2.9-0.8-3.6-0.5-7-2C374.4,22.8,377.4,22.6,379,24.9z"/>
			<path class="st1" d="M79,83.8c-4.5,4-10,9.1-13.6,13.9c-1.6,2.1-3.5,6.7-4.4,8c-1.5,0-4.7,3.5-6,5c5.9-8.9,13.5-18.8,21.5-26
				C77.4,84,78.8,84,79,83.8z"/>
			<path class="st1" d="M517,150.7c-1.2-2-5.1-5.8-6-7c-0.2-0.3-0.1-2-1-2.5l1-0.5C512.9,143.7,515.8,146.8,517,150.7z"/>
			<path class="st1" d="M384,26.9l-4,0l0-2C382.5,25.5,382.5,26.1,384,26.9z"/>
			<path class="st1" d="M479,95.8c-4.4-5.1-12.5-13.3-17.6-17.9c-1.5-1.4-3.1-3.6-5.4-3c-0.4-0.6-0.6-1.4-1-2c1.9,0.5,2,0,4,1.4
				C466,79.2,472.7,89.8,479,95.8z"/>
			<path class="st1" d="M503,127.7c-1.1-1.4-2-3.1-4-3c-0.2-0.6,0.5-1.9-0.2-2.8c-0.4-0.5-1.6-0.1-1.8-0.2c0.2-2.2-1-3.4-2-5
				C498.6,119.1,501.4,123.7,503,127.7z"/>
			<path class="st1" d="M523,164.7c-0.7-1.7-1.4-3.6-2-5C522.7,160.8,523,162.8,523,164.7z"/>
			<path class="st1" d="M100,64.8l-10,8c1.9-1.9,3.4-4.1,5.5-6C96,66.5,99.5,63.2,100,64.8z"/>
			<path class="st1" d="M39,134.7c0.9-3.6,3-7.6,6-10C42.9,127.9,40.9,131.4,39,134.7z"/>
			<path class="st1" d="M485,103.8c-1.9-2.4-4-4.7-6-7C481.4,98.5,484.5,100.7,485,103.8z"/>
			<path class="st1" d="M519,154.7c-1.5-0.4-1.9-1.5-2-3C517.5,152.6,518.3,153.3,519,154.7z"/>
			<path class="st1" d="M521,158.7c-1.5-0.4-2-1.5-2-3C519.4,156.4,520.3,157.3,521,158.7z"/>
			<path class="st2" d="M6,326.4c4.2,15.3,9,31.8,15.3,47.1c0.8,1.8,9.6,21.7,10.6,20.8l1-2c0.6,2.8,2.8,5.1,3.7,7.8
				c3.1,8.8,5.2,14.7,10.9,23.1c5.1,7.7,13.1,14.7,17.4,23l2-3c4.1,4.8,4.8,9.7,8,15h-1c-9.3-10.4-18-20.4-26-31.9
				c-3-4.3-5.5-9.2-9-13c-12.5-21.9-30.5-57.9-33-82.8C5.9,329.1,6.1,327.7,6,326.4z"/>
			<path class="st2" d="M90,472.1c35.7,27.3,57.9,41.3,100,57.9c-1-0.1-2,0.1-3,0c-13.2-1.3-43.6-17.9-56-25
				c0.7-2.8-1.9-1.8-3.7-2.8c-2.2-1.2-4.2-2.8-6.3-4.2c-6.9-4.4-14.7-9.8-21-15C96.6,480.2,91.6,476.2,90,472.1z"/>
			<path class="st1" d="M213,537c8.2,1.4,16.2,2.3,24.4,3.1c1.4,0.1,7.5,0.2,6.6,2.9c-6.6,0.2-19.3-2.8-26.5-4
				C215.8,538.6,214,538.8,213,537z"/>
			<path class="st1" d="M190,530c3.1,1.2,9.6,2.4,10.9,3.1c0.4,0.2,0.1,1.3,0.1,1.8c-4.7-1-10.3-1.8-14-5
				C188,530.1,189,529.9,190,530z"/>
			<path class="st1" d="M5,321.4c0.4,1.5,0.5,3.3,1,5c0.1,1.3-0.1,2.7,0,4c-2.8-4.3-3.2-10-3-15C3.4,317,4.5,319.7,5,321.4z"/>
			<path class="st1" d="M90,472.1c1.6,4.1,6.6,8.2,10,11c-8.7-6.6-17.7-14.3-25-22.5c-0.8-0.9-0.7-2.3-1-2.5h1
				c2.1,3.5,8.1,10.8,11.5,13C87.9,472.1,89.9,472,90,472.1z"/>
			<path class="st1" d="M121,498.1c2.1,1.4,4.1,3,6.3,4.2c1.8,1,4.4,0,3.7,2.8C127.6,503.1,123.1,501.6,121,498.1z"/>
			<path class="st1" d="M48,426.2c-4.2-3.1-6.5-8.6-9-13C42.5,417,45,421.9,48,426.2z"/>
			<path class="st2" d="M507,413.2l-1.4-1.9c-0.1,0.3-2.6,5-2.5,1.5c6.4-11.1,13.7-22.7,18.2-34.8c2.3-6.3,1.2-11.6,6.2-14.9
				c1.4-5.8,3.1-13.3,5.1-18.8c0.4-1,1.8-1.8,1.5,0.4c-0.7,4.6-3.4,8.9-3.9,13.5l6-13c0,1,0.1,2,0,3
				C535.1,364.3,516.2,399.2,507,413.2z"/>
			<path class="st2" d="M401,512l4-4c-1.9-0.5-5.9,4-7,1c15.9-6.4,29.7-17.1,43.5-27c1.1,3.3,1.2,1.8,3.5,1c0.2,1.8-0.9,2.1-2,3
				c-11.1,9.2-25.2,18.3-38,25C403.4,511.8,401.7,511.7,401,512z"/>
			<path class="st2" d="M334,536c2-1.6,3.5-1,6-1l-2-2c0.8-2.7,4.1-1.6,6.2-2.2c10.6-3,21.1-6.7,31.3-10.7l0.8,1.9
				c2.1-0.7,4.4-1.4,6.6-1.9v2c-6.9,2.8-14,5.6-21,8c-4.2,0.3-11.2,1.1-14,4c-4,1-7.9,2.3-12,3L334,536z"/>
			<path class="st2" d="M499,424.2c0.9,3.9-3.6,5.6-4.7,7.3c-0.5,0.7-0.2,1.6-0.3,1.7c-2.9,4.1-5.9,8-9,12h-1l-3-1l6.5-9l0.5,2
				C488.6,437.7,498,425.4,499,424.2z"/>
			<path class="st1" d="M332,538c-6.5,2.4-13.6,2.3-20.3,3.2c-4.7,0.6-6.8,2-12.7,1.8c-0.6-3.1,1.6-1.8,3.5-2
				C311.7,540.3,323.1,539.4,332,538z"/>
			<path class="st1" d="M485,445.1c-5.8,7.5-11.8,15.9-19,22.5c-1.2,1.1-2.1,2.5-4,2.5c7.7-7.9,15.1-16.8,22-25H485z"/>
			<path class="st1" d="M362,530c-5.2,1.8-8.7,2.6-14,4C350.8,531.1,357.8,530.3,362,530z"/>
			<path class="st1" d="M540,336.3c-0.9,3.9-1.5,9.1-4,12c0.1-1,0-2,0-3C537.9,342.6,536.3,335.8,540,336.3z"/>
			<path class="st1" d="M383,522v-2c8.1-2,11.5-4.8,18-8c0.7-0.3,2.4-0.2,4-1C399,516.4,390.3,519,383,522z"/>
			<path class="st1" d="M443,486.1c1.1-0.9,2.2-1.2,2-3c6.7-2.4,8.9-7.7,15-11C455.3,476.9,449,483.7,443,486.1z"/>
			<path class="st1" d="M494,433.2c0.1-0.1-0.2-1,0.3-1.7c1.1-1.7,5.6-3.4,4.7-7.3c2.1-2.6,4.6-5.4,7-9
				C504.2,421.9,499.2,428.7,494,433.2z"/>
			<path class="st1" d="M336,537c-0.8,0.1-1.8,0.8-3,1c0-1,0.2-1.4,1-2L336,537z"/>
			
				<linearGradient id="SVGID_00000047778185596104915460000007609944363899848861_" gradientUnits="userSpaceOnUse" x1="-344.36" y1="981.2" x2="-516.5047" y2="1186.6025" gradientTransform="matrix(1 0 0 0.9982 686 -806.5428)">
				<stop  offset="0" style="stop-color:#E8F7FD"/>
				<stop  offset="1" style="stop-color:#526CF2"/>
			</linearGradient>
			<path style="fill:url(#SVGID_00000047778185596104915460000007609944363899848861_);" d="M299.4,202.2
				c5.1,5.5,16.7,11.4,24.1,12.3c25.5,3.2,38.7-13.4,68.1-1.1c14.5,6.1,29.8,24.4,33.1,39.9c8.2,39.6-24.7,72.1-64,66.9
				c-19.4-2.6-27.2-17.2-50.8-6.3c-21.2,9.8-17.5,30.6-21.2,49.7c-8.5,43.8-60.4,62.1-97.1,36.5c-42.6-29.7-30.2-95,19.1-110.3
				c26.2-8.1,52.4,6.2,67.1-25.9c9.7-21.2,0.8-45.7-22.6-51c-10-2.3-27.1-0.5-35.6-3.4c-1.2-0.4-1.3-2.2-1.9-2.6
				c-3.6-2.2-8.1-3.8-12.2-7.3c-51.6-44.1,13.8-117.2,63.5-77.3C300.7,147.7,276.7,177.4,299.4,202.2z"/>
			<path class="st2" d="M543,298.9c-0.1,1.2-1.6,4-1.9,6.1c-0.4,3.4,0.1,6.9-0.1,10.4l-1-8.5c3.8-17.6,1.3-35.9,2-53.9
				c0.1-1.2-0.8-3.7,1-3.5C542.1,265.6,544.2,282.9,543,298.9z"/>
		</g>
	</g>
</g>
<g>
	<g>
		<path class="st5" d="M219.7,208.7c0,0-0.1,0.1-0.1,0.1c0.1-0.1,0.3-0.2,0.4-0.2c-0.7,0.2-1.2-0.4-1.7-0.8
			c-0.8-0.5-1.6-0.9-2.4-1.4c-1.7-1-3-2.6-4.6-3.8c-0.4-0.3-6.4-4.7-5.7-5.3c-0.3,0.2-0.6,0.3-0.9,0.5c0.7,0.3,1.3,0.9,2,1.4
			c0.6,0.5,1.3,1,2,1.5c1.4,1.1,2.8,2.2,4.2,3.2c0.7,0.5,1.4,0.9,2.1,1.4c0.6,0.5,1.2,1.1,1.9,1.5c0.6,0.4,1.3,0.8,2,1.2
			c0.6,0.3,1.4,0.8,2.1,0.9c0.1,0,0.9-0.5,0.9-0.5c-0.1-0.4-0.5-0.5-0.8-0.7c-0.4-0.3-0.9-0.5-1.4-0.8c-0.9-0.6-1.7-1.3-2.6-1.9
			c-0.9-0.6-1.9-1.2-2.8-1.7c-0.2-0.1-0.6-0.5-0.9-0.6c-0.2,0-0.4,0.1-0.5,0.2c-0.1,0.1-0.5,0.2-0.5,0.4c-0.1,0.2,0.3,0.6,0.5,0.7
			c0.6,0.8,1.4,1.6,2.1,2.3c0.7,0.7,1.6,1.3,2.4,1.7c0.9,0.5,2,0.7,3,1c0.2,0.1,0.7-0.6,0.9-0.5c-0.6-0.3-1.2-0.5-1.7-0.8
			c-0.4-0.3-0.8-0.6-1.2-0.9c-0.9-0.7-1.8-1.3-2.8-1.9c-0.1,0-0.9,0.5-0.9,0.5c0.3,0.7,1,1,1.6,1.4c0.8,0.5,1.6,0.9,2.2,1.6
			c0.3-0.2,0.6-0.3,0.9-0.5c-0.6-0.6-1.2-1.1-1.8-1.6c-0.2-0.2-1.6-1.2-1.4-1.4c-0.2,0.2-0.7,0.3-0.9,0.5c-0.2,0.3,1.1,1.3,1.4,1.4
			c0.6,0.5,1.2,1,1.8,1.6c0.1,0.1,0.8-0.6,0.9-0.5c-0.7-0.6-1.5-1.1-2.2-1.6c-0.6-0.4-1.3-0.8-1.6-1.4c-0.3,0.2-0.6,0.3-0.9,0.5
			c1,0.6,1.9,1.2,2.8,1.9c0.4,0.3,0.8,0.6,1.2,0.9c0.5,0.3,1.1,0.6,1.7,0.8c0.3-0.2,0.6-0.3,0.9-0.5c-0.9-0.3-1.8-0.5-2.6-0.8
			c-0.8-0.3-1.6-0.9-2.2-1.4c-0.7-0.6-1.3-1.3-1.9-2c-0.2-0.3-1.3-1.2-1.2-1.7c-0.3,0.2-0.6,0.3-0.8,0.5c0.2-0.1,0.5,0.3,0.7,0.4
			c0.4,0.3,0.9,0.5,1.3,0.8c0.8,0.5,1.7,1,2.5,1.6c0.8,0.6,1.5,1.2,2.4,1.6c0.5,0.3,1.6,0.7,1.8,1.3c0.3-0.2,0.6-0.3,0.9-0.5
			c-0.7-0.1-1.4-0.5-2-0.8c-0.7-0.4-1.4-0.8-2-1.2c-0.7-0.4-1.2-1-1.9-1.5c-0.7-0.5-1.5-1-2.2-1.5c-1.4-1-2.8-2-4.2-3.1
			c-0.6-0.5-1.3-1-2-1.5c-0.7-0.5-1.3-1.1-2-1.4c-0.1,0-0.8,0.4-0.9,0.5c-0.7,0.6,5.9,5.4,6.3,5.8c1.6,1.3,3.1,2.8,4.9,3.7
			c0.8,0.4,1.4,1,2.2,1.4C218.8,209.2,219.1,209,219.7,208.7c0.1-0.1,0.3-0.1,0.4-0.2C220,208.5,219.8,208.6,219.7,208.7
			L219.7,208.7z"/>
	</g>
</g>
<g>
	<g>
		<path class="st5" d="M215.4,206.9c0.3,0.4,0.7,0.6,1.2,0.8c0.2,0.1,0.4,0.2,0.6,0.4c0.2,0.2,0.4,0.3,0.6,0.4
			c0.2,0.1,0.4,0.1,0.6,0.2c0.2,0.1,0.5,0.2,0.7,0.3c0.2,0.1,0.4,0.2,0.7,0.3c0.1,0,0.2,0.1,0.3,0.1c0.1,0,0.2,0.1,0.3,0.1
			c0.1,0,0.9-0.5,0.9-0.5c-0.1-0.1-0.3-0.1-0.4-0.2c-0.2-0.1-0.4-0.1-0.6-0.2c-0.4-0.2-0.7-0.4-1.1-0.6c-0.3-0.2-0.7-0.4-1-0.5
			c-0.1-0.1-0.2-0.2-0.4-0.1c-0.2,0.1-0.4,0.2-0.6,0.4c0,0-0.2,0.1-0.2,0.1c0,0.1,0.1,0.2,0.2,0.3c0.1,0.1,0.3,0.2,0.4,0.3
			c0.3,0.2,0.6,0.3,0.9,0.5c0.3,0.2,0.6,0.3,1,0.4c0.3,0.1,0.7,0.3,1.1,0.3c0.1,0,0.3-0.2,0.4-0.2c0.1-0.1,0.2-0.1,0.3-0.2
			c0,0,0.1-0.1,0.1-0.1c-0.4,0-0.7-0.2-1.1-0.3c-0.3-0.1-0.7-0.2-1-0.4c-0.3-0.2-0.6-0.4-0.9-0.5c-0.1-0.1-0.3-0.2-0.4-0.3
			c-0.1-0.1-0.2-0.2-0.3-0.3c-0.1,0-0.1,0.1-0.2,0.1c0,0,0,0,0,0c-0.2,0.1-0.4,0.2-0.7,0.4c0.1,0,0.3,0.1,0.4,0.2
			c0.1,0.1,0.3,0.2,0.4,0.2c0.3,0.2,0.6,0.3,0.9,0.4c0.3,0.2,0.6,0.3,0.9,0.5c0.2,0.1,0.3,0.1,0.5,0.2c0.1,0,0.3,0,0.3,0.1
			c0.3-0.2,0.6-0.3,0.9-0.5c-0.1,0-0.2-0.1-0.2-0.1c-0.1,0-0.2-0.1-0.3-0.1c-0.2-0.1-0.4-0.2-0.6-0.2c-0.2-0.1-0.5-0.2-0.7-0.3
			c-0.2-0.1-0.5-0.1-0.7-0.2c-0.2-0.1-0.4-0.2-0.6-0.4c-0.2-0.2-0.4-0.3-0.6-0.4c-0.5-0.3-0.9-0.4-1.2-0.9
			C216.3,206.4,215.4,206.9,215.4,206.9L215.4,206.9z"/>
	</g>
</g>
<g>
	<g>
		<path class="st5" d="M376.5-53.3c0.3,0,0.6-0.5,0.9-0.5C377-53.8,376.7-53.3,376.5-53.3L376.5-53.3z"/>
	</g>
</g>
<g>
	<g>
		<path class="st5" d="M380.1-38.8c0.3,0,0.6-0.5,0.9-0.5C380.6-39.3,380.4-38.8,380.1-38.8L380.1-38.8z"/>
	</g>
</g>
</svg>
